<svg version="1.1" xmlns="http://www.w3.org/2000/svg" width="231.7px" height="110px" viewBox="0 0 231.7 110">
<style type="text/css">
	.brush-stroke2 {
		fill:#BFC6E0;
		opacity: .6;
	}
	.brush-stroke1 {
		fill:#D9DEE2;
		opacity: .6;
	}
	.widget {fill:#6A737B;}
	.palmer-and-sicard, .inc, .mechanical-contractors {fill:#004990;}
	.mechanical-contractors {
		font-size: 12px;
		font-family: sans-serif;
	}
</style>
<g>
	<path class="brush-stroke2" d="M53.4,87.2c-0.2-0.3-0.9-0.3,0-1c3-1.8,6-1.9,9.1-3.9l-0.1-0.6c2.7-1.2,5.2-2.5,7.8-3.7
		c4.5-3.1,8.6-6.5,12.4-10.1c-0.2-0.1-0.4-0.2-0.1-0.6c1.7-1.5,3.9-3.3,6.2-5.4l0.9-1c0.2-0.3,0.1-0.5,0-0.7c1-0.9,1.9-1.8,2.8-2.5
		c10.1-11,17.5-24.2,29.5-33c2.4-2.2,5.1-4.2,7.8-5.7c4.2-2.3,9.9-3.7,14.4-4.7c-1.2-2.1,9.8-4.9,7.4-6.6c3.2-0.3,8.1-0.2,8.3-0.7
		c0.7-1.6,3.4-4.3,13.3-3c3.7,0.7,9,4,10.3,4.3c2.3,0.4-4-3.2-1.8-2.8C168-1.4,153.1-1,140.3,2.3c-12.9,3.4-25,9.4-35.6,18.3
		c-4,3.7-14.3,15.8-25.8,27.5C67.6,60,54,68.2,47.5,70.6l-1.1,0.5c-6.8,3-15.1,6.1-20.7,8c-2.5,0.9-5.2,2.1-7.8,2.6
		c1.2,0.3,2.4,0.5,3.5,0.7c-2.8,0.3-5.5,0.2-6.6,0.4c-5.6,0-3,1.8-0.6,3.3c1.8,0.7-0.7,1.6,2.2,2.3c-2.2-0.2-3.2-0.2-5.3-0.7
		c-0.3,0.7,6.7,0.4,5.1,1.2c-2.1-0.3-4.5-0.2-6.8-0.8c0.5,1.2,7.7,1.6,7.3,2.1c-1.2,0.3-6.2-1.7-6.8-0.8c-0.2,0.2,2.2,0.7,3.3,0.8
		c-7-0.6-11.9-2.7-5.2,1.4c-2.5-0.7-5.7-2.8-8-4.5l0,0c1.1,0.7,3,2.6,4.3,3c-1.5-0.6-2.8-1.8-4.2-2.7l0.4,0.8c0.9,0.7,2,1.8,3.1,2.3
		c-0.9-0.4-1.9-1.2-2.8-1.8c0.5,0.7,1.1,1.6,2,2.4c3.3,2.3,6.9,4.1,9,4.4C28.2,97.5,41.1,92.3,53.4,87.2"/>
	<path class="brush-stroke1" d="M72.1,101.2c-0.2-0.3-0.9-0.3,0-1c3-1.8,6-1.9,9.1-3.9l-0.1-0.6
		c2.7-1.2,5.2-2.5,7.8-3.7c4.5-3.1,8.6-6.5,12.4-10.1c-0.2-0.1-0.4-0.2-0.1-0.6c1.7-1.5,3.9-3.3,6.2-5.4l0.9-1
		c0.2-0.3,0.1-0.5,0-0.7c1-0.9,1.9-1.8,2.8-2.5c10.1-11,17.5-24.2,29.5-33c2.4-2.2,5.1-4.2,7.8-5.7c4.2-2.3,9.9-3.7,14.4-4.7
		c-1.2-2.1,9.8-4.9,7.4-6.6c3.2-0.3,8.1-0.2,8.3-0.7c0.7-1.6,3.4-4.3,13.3-3c3.7,0.7,9,4,10.3,4.3c2.3,0.4-4-3.2-1.8-2.8
		c-13.6-6.7-28.5-6.2-41.3-2.9c-12.9,3.4-25,9.4-35.6,18.3c-4,3.7-14.3,15.8-25.8,27.5C86.2,74,72.8,82.2,66.2,84.6l-1.1,0.5
		c-6.8,3-15.1,6.1-20.7,8c-2.5,0.9-5.2,2.1-7.8,2.6c1.2,0.3,2.4,0.5,3.5,0.7c-2.8,0.3-5.5,0.2-6.6,0.4c-5.6,0-3,1.8-0.6,3.3
		c1.8,0.7-0.7,1.6,2.2,2.3c-2.2-0.2-3.2-0.2-5.3-0.7c-0.3,0.7,6.7,0.4,5.1,1.2c-2.1-0.3-4.5-0.2-6.8-0.8c0.5,1.2,7.7,1.6,7.3,2.1
		c-1.2,0.3-6.2-1.7-6.8-0.8c-0.2,0.2,2.2,0.7,3.3,0.8c-7-0.6-11.9-2.7-5.2,1.4c-2.5-0.7-5.7-2.8-8-4.5l0,0c1.1,0.7,3,2.6,4.3,3
		c-1.5-0.6-2.8-1.8-4.2-2.7l0.4,0.8c0.9,0.7,2,1.8,3.1,2.3c-0.9-0.4-1.9-1.2-2.8-1.8c0.5,0.7,1.1,1.6,2,2.4c3.3,2.3,6.9,4.2,9,4.4
		C46.8,111.5,59.8,106.3,72.1,101.2"/>
	<path class="widget" d="M41.5,13.7c0.2,0.1,5.7,10.3,8.2,15.1c0.1,0.2,0.2,0.4,0.3,0.8c-0.5,0-0.8,0-1.2,0
		c-4.5,0-15.1,0-15.1,0s0,15.2,0,15.6c-6.1,0-18.2-0.1-18.2-0.1s0-8,0-11.7c0-0.3,0-8.8,0-9.2c0.4-5.6,4.3-9.8,9.8-10.8
		C25.9,13.6,41.2,13.6,41.5,13.7z M33.2,25.4c0-4.4-3.2-7.6-7.6-7.6c-4.5,0-7.8,3.3-7.8,7.7c0,4.2,3.4,7.5,7.7,7.5
		C30,33,33.2,29.7,33.2,25.4z"/>
	<path class="palmer-and-sicard" d="M54.5,46.1V18h12c2.1,0,3.9,0.4,5.2,1.2c1.5,0.7,2.5,2,3.2,3.4c0.7,1.6,1,3.3,1,5.5
		c0,6.3-2.6,9.5-7.9,9.5h-4.6v8.2h-9.1v0.2H54.5z M63.8,30.4h1.5c0.6,0,1.2-0.2,1.6-0.6s0.5-0.9,0.5-1.7s-0.2-1.2-0.6-1.8
		c-0.4-0.5-0.9-0.7-1.7-0.7h-1.2L63.8,30.4L63.8,30.4z M74.8,46.1L83.5,18h10l8.8,28.1h-9.5l-0.9-3.6h-6.8l-0.8,3.6H74.8z
		 M86.6,35.6h3.7l-1.8-7.8L86.6,35.6z M103.4,46h16.6v-9.4h-7.5V18h-9.1v28.1V46z M129.9,46.1l1.4-14.9l3.4,14.9h6l3.4-14.9
		l1.5,14.9h9.1L150.6,18h-9.6L137.8,32L134.6,18h-9.9L121,46.1C121,46.1,130,46.1,129.9,46.1z M156.9,46h16.9v-7.6H166v-2.9h6.8
		v-7.2H166v-2.7h7.5V18h-16.7v28.1V46z M176.8,46.1V18h12.5c1.4,0,2.6,0.2,3.7,0.6c1,0.4,2.1,1,2.8,2c0.7,0.8,1.5,1.9,1.9,3
		c0.4,1.2,0.6,2.5,0.6,4c0,1.9-0.3,3.3-1,4.6c-0.6,1.2-1.9,2.1-3.3,2.7l6.6,11.2H190l-4.2-9.1v9.1L176.8,46.1L176.8,46.1z
		 M185.9,30.4c1,0,2-0.1,2.5-0.4c0.3-0.2,0.6-0.4,0.7-0.7c0.1-0.3,0.2-0.7,0.2-1.2c0-0.9-0.2-1.7-0.7-2c-0.5-0.3-1.5-0.4-2.6-0.4
		v4.8H185.9z M45.7,78.3c-2,1-3.4,1.8-4.6,2.2c-1.2,0.3-2.4,0.5-3.9,0.5c-1.8,0-3.3-0.3-4.8-1c-1.5-0.7-2.5-1.8-3.2-3
		c-0.7-1.4-1.2-2.8-1.2-4.5c0-1.2,0.2-2.3,0.6-3.1c0.4-0.9,1-1.8,1.9-2.4c0.8-0.6,1.9-1.2,3.1-1.7c-0.8-0.9-1.6-2-2-2.7
		c-0.3-0.7-0.5-1.7-0.5-2.6c0-1.7,0.4-3.1,1.4-4.4c0.8-1.2,2-2.1,3.3-2.7s2.9-0.8,4.5-0.8s2.9,0.3,4.4,0.8c1.4,0.5,2.4,1.6,3.2,2.6
		c0.8,1.2,1.4,2.6,1.4,4.3c0,1.6-0.3,2.8-0.9,3.9c-0.6,1-1.8,2-3.1,2.7l2.1,2.3l3.6-4.1l5,5.5L52,73.9l5.8,6.7H47.5L45.7,78.3z
		 M37.9,69.9c-0.5,0.4-0.8,0.8-0.9,1c-0.2,0.3-0.2,0.6-0.2,0.9c0,1.2,0.5,1.9,1.8,1.9c0.8,0,1.7-0.2,2.4-0.7L37.9,69.9z M40.4,61.5
		c0,0.1,0.1,0.1,0.1,0.2s0.1,0.1,0.1,0.2c0.5-0.6,0.8-1,1-1.4c0.2-0.3,0.2-0.5,0.2-0.8c0-0.4-0.1-0.7-0.3-1
		c-0.2-0.2-0.5-0.3-0.8-0.3c-0.3,0-0.6,0.1-0.8,0.4c-0.2,0.2-0.4,0.6-0.4,1c0,0.3,0.2,0.7,0.5,1.4L40.4,61.5z M59.9,77.7
		c2.2,1.1,3.9,2.1,5.3,2.5c1.5,0.4,3,0.6,4.7,0.6c1.7,0,3-0.2,4.4-0.7c1.2-0.4,2.4-1.2,3.3-2.1c0.9-0.8,1.7-1.9,2.2-3.2
		c0.5-1.4,0.7-2.7,0.7-4.3c0-2.4-0.6-4.2-2-5.5c-0.4-0.7-1-1.1-1.7-1.5c-0.5-0.2-1.7-0.6-3.4-1c-1.1-0.3-1.8-0.6-2.2-0.8
		c-0.3-0.2-0.5-0.4-0.5-0.7c0-0.4,0.2-0.7,0.6-1c0.5-0.3,1-0.4,1.6-0.4c1.6,0,3,0.6,4.7,2.2l2.7-7c-1.7-1.1-2.9-2-4.2-2.4
		c-1.2-0.4-2.5-0.6-4.1-0.6c-2.1,0-3.9,0.5-5.5,1.4c-1.7,0.9-3,2.1-3.9,3.6c-1,1.6-1.5,3.3-1.5,5.3c0,1.9,0.5,3.5,1.6,4.9
		c1,1.4,2.3,2.3,4,2.7l2.7,0.7c1,0.2,1.5,0.8,1.5,1.5c0,0.3-0.1,0.6-0.4,0.8c-0.3,0.2-0.7,0.3-1.2,0.3c-0.9,0-2-0.2-2.8-0.6
		c-0.8-0.4-2-1.2-3.3-2.3L59.9,77.7z M93.8,80.4V52.3h-9.1v28.1H93.8z M117.2,79.7h0.1V69.5c-1,1-2.1,1.7-2.7,2
		c-0.7,0.3-1.6,0.5-2.4,0.5c-1.4,0-2.6-0.5-3.4-1.6c-1-1.1-1.5-2.4-1.5-4c0-0.9,0.2-1.9,0.6-2.7c0.4-0.9,1-1.6,1.8-2
		c0.7-0.5,1.7-0.7,2.5-0.7c0.8,0,1.7,0.1,2.3,0.5c0.7,0.4,1.7,1.1,2.7,2.2V53.3c-1.8-0.7-3-1-3.7-1.2c-0.7-0.1-1.6-0.2-2.5-0.2
		c-2.5,0-4.7,0.7-6.7,2c-2,1.2-3.6,3-4.7,5.3c-1.1,2.2-1.7,4.8-1.7,7.5c0,2.7,0.6,5.2,1.7,7.4c1.1,2.2,2.6,3.9,4.6,5.1
		c2,1.2,4.3,1.9,6.7,1.9c1,0,2-0.1,2.7-0.2C114.4,80.6,115.5,80.2,117.2,79.7L117.2,79.7z M120.2,80.4l8.5-28.1h10l8.8,28.1h-9.5
		l-0.9-3.6h-6.7l-0.8,3.6H120.2z M131.9,70h3.7l-1.8-7.8L131.9,70z M150.7,80.4V52.3h12.5c1.4,0,2.6,0.2,3.7,0.6c1,0.4,2.1,1,2.8,2
		c0.7,0.8,1.5,1.9,1.9,3c0.4,1.2,0.6,2.5,0.6,4c0,1.9-0.3,3.3-1,4.6c-0.6,1.2-1.9,2.1-3.3,2.7l6.6,11.2H164l-4.2-9.1v9.1L150.7,80.4
		L150.7,80.4z M159.9,64.7c1,0,2-0.1,2.5-0.4c0.3-0.2,0.6-0.4,0.7-0.7c0.1-0.3,0.2-0.7,0.2-1.2c0-0.9-0.2-1.7-0.7-2
		c-0.5-0.3-1.5-0.4-2.6-0.4v4.8H159.9z M177.7,80.4V52.3H188c2.1,0,4.1,0.3,5.6,0.9c1.7,0.6,3,1.7,4.3,2.8c1.2,1.2,2.1,2.7,2.6,4.5
		c0.6,1.8,0.8,3.7,0.8,5.8s-0.3,4.1-0.8,5.6c-0.5,1.8-1.5,3.1-2.5,4.4s-2.4,2.2-4,2.8c-1.6,0.6-3.2,0.9-5.1,0.9h-11.3v0.3H177.7z
		 M186.9,71.8h1.7c1.2,0,2.1-0.5,2.8-1.6c0.7-0.9,1-2.3,1-3.9c0-1.7-0.4-2.8-1.4-3.9c-0.5-0.6-1-0.9-1.7-1.2
		c-0.5-0.2-1.5-0.2-2.6-0.2v10.7H186.9z"/>
	<path class="inc" d="M199.8,77.7h2.9l-2.1,4.3h-2.3L199.8,77.7z M208.5,80.1v-8.6h-3.1v8.6H208.5z M213.1,80.1v-4.6
		l2.6,4.6h3.1v-8.6h-3.1v4.4l-2.4-4.4h-3.2v8.6H213.1z M226.9,79.8v-3.2c-0.4,0.3-0.7,0.5-0.9,0.6c-0.3,0.1-0.5,0.1-0.8,0.1
		c-0.5,0-0.9,0-1.2-0.4c-0.3-0.4-0.4-0.8-0.4-1.2c0-0.3,0.1-0.6,0.2-0.8c0.2-0.3,0.4-0.5,0.6-0.6c0.3-0.1,0.5-0.2,0.8-0.2
		c0.2,0,0.5,0.1,0.7,0.2c0.3,0.1,0.5,0.3,0.9,0.6v-3.2c-0.7-0.1-1.1-0.3-1.4-0.3c-0.2-0.1-0.5-0.1-0.8-0.1c-0.8,0-1.7,0.2-2.3,0.6
		c-0.8,0.3-1.2,1-1.7,1.7c-0.3,0.6-0.5,1.5-0.5,2.3c0,0.8,0.1,1.7,0.5,2.3c0.4,0.8,1,1.2,1.7,1.7c0.6,0.3,1.5,0.5,2.3,0.5
		c0.4,0,0.7-0.1,0.9-0.1c0.3,0,0.7-0.1,1.2-0.3H226.9z M229.8,77.4c-0.3,0-0.6,0.1-0.8,0.2c-0.3,0.1-0.5,0.3-0.6,0.5
		s-0.2,0.5-0.2,0.7c0,0.4,0.1,0.8,0.5,1c0.4,0.2,0.8,0.3,1.2,0.3c0.5,0,0.9-0.2,1.2-0.4c0.3-0.3,0.5-0.6,0.5-1
		c0-0.3-0.1-0.5-0.2-0.7c-0.2-0.2-0.4-0.4-0.6-0.5S230.3,77.4,229.8,77.4z"/>
	<text class="mechanical-contractors" dx="30px" dy="90%">
		Mechanical Contractors since 1954
	</text>
</g>
</svg>
