<svg version="1.1" id="linkedin" xmlns="http://www.w3.org/2000/svg" xmlns:xlink="http://www.w3.org/1999/xlink" x="0px" y="0px"
        viewBox="0 0 34 34" style="enable-background:new 0 0 34 34;" xml:space="preserve">
<style type="text/css">
    .st0_linkedin{fill:#027BB6;}
    .st1_linkedin{fill:#FFFFFF;}
</style>
<rect id="LinkedIn_4_" x="0.2" y="0.6" class="st0_linkedin" width="33.2" height="33.2"/>
<path id="LinkedIn_3_" class="st1_linkedin" d="M25.8,18.8v6.6h-3.8v-6.1c0-1.5-0.6-2.6-1.9-2.6c-1.1,0-1.7,0.7-2,1.4
    c-0.1,0.2-0.1,0.6-0.1,0.9v6.4h-3.8c0,0,0.1-10.4,0-11.5h3.8v1.6c0,0,0,0,0,0h0v0c0.5-0.8,1.4-1.9,3.4-1.9
    C23.9,13.7,25.8,15.3,25.8,18.8z M10.1,8.4c-1.3,0-2.2,0.9-2.2,2c0,1.1,0.8,2,2.1,2h0c1.3,0,2.2-0.9,2.2-2
    C12.2,9.2,11.4,8.4,10.1,8.4z M8.2,25.4H12V13.9H8.2V25.4z"/>
</svg>