<svg version="1.1" id="twitter" xmlns="http://www.w3.org/2000/svg" xmlns:xlink="http://www.w3.org/1999/xlink" x="0px" y="0px"
        viewBox="0 0 34 34" style="enable-background:new 0 0 34 34;" xml:space="preserve">
<style type="text/css">
    .st0_twitter{fill:#2CA9E1;}
    .st1_twitter{fill:#FFFFFF;}
</style>
<rect id="Twitter_4_" x="0.3" y="0.5" class="st0_twitter" width="33.2" height="33.2"/>
<path id="Twitter_1_" class="st1_twitter" d="M25.3,12.2c-0.6,0.3-1.2,0.4-1.9,0.5c0.7-0.4,1.2-1.1,1.5-1.9c-0.6,0.4-1.4,0.7-2.1,0.8
    c-0.6-0.7-1.5-1.1-2.5-1.1c-1.9,0-3.4,1.5-3.4,3.4c0,0.3,0,0.5,0.1,0.8c-2.8-0.1-5.3-1.5-6.9-3.5c-0.3,0.5-0.5,1.1-0.5,1.7
    c0,1.2,0.6,2.2,1.5,2.8c-0.6,0-1.1-0.2-1.5-0.4c0,0,0,0,0,0c0,1.6,1.2,3,2.7,3.3c-0.3,0.1-0.6,0.1-0.9,0.1c-0.2,0-0.4,0-0.6-0.1
    c0.4,1.3,1.7,2.3,3.1,2.3c-1.1,0.9-2.6,1.4-4.2,1.4c-0.3,0-0.5,0-0.8,0c1.5,1,3.2,1.5,5.1,1.5c6.2,0,9.6-5.1,9.6-9.6
    c0-0.1,0-0.3,0-0.4C24.3,13.5,24.9,12.9,25.3,12.2z"/>
</svg>